<?xml version="1.0" standalone="no"?>
<!DOCTYPE svg PUBLIC "-//W3C//DTD SVG 20010904//EN"
 "http://www.w3.org/TR/2001/REC-SVG-20010904/DTD/svg10.dtd">
<svg version="1.0" xmlns="http://www.w3.org/2000/svg"
 width="1280.000000pt" height="1024.000000pt" viewBox="0 0 1280.000000 1024.000000"
 preserveAspectRatio="xMidYMid meet">

<g transform="translate(0.000000,1024.000000) scale(0.100000,-0.100000)"
fill="#000000" stroke="none">
<path d="M9820 9363 c-14 -2 -1217 -100 -2675 -218 -1457 -118 -2678 -217
-2712 -220 l-63 -7 0 -2790 0 -2790 -27 7 c-152 39 -510 58 -690 36 -451 -56
-838 -235 -1147 -531 -402 -386 -491 -863 -226 -1213 83 -110 202 -199 363
-273 l69 -32 -104 -6 c-588 -38 -599 -104 -23 -147 208 -16 1002 -16 1210 0
281 21 431 47 422 74 -6 20 -129 45 -280 58 -78 6 -159 14 -181 18 -38 6 -38
6 70 48 205 80 347 176 511 347 222 230 392 560 475 921 l22 100 3 2352 3
2351 58 6 c51 6 4522 386 4536 386 3 0 6 -912 6 -2026 l0 -2026 -27 7 c-167
43 -527 58 -728 31 -457 -64 -862 -264 -1156 -574 -423 -445 -441 -986 -42
-1303 375 -298 1010 -324 1538 -64 139 69 254 155 381 287 222 231 394 564
476 923 l23 100 2 3088 3 3087 -32 -1 c-18 -1 -44 -4 -58 -6z m-570 -255 c-49
-222 -109 -398 -199 -583 -90 -183 -151 -273 -253 -371 -133 -128 -239 -190
-373 -219 -99 -21 -355 -43 -355 -30 0 5 -5 3 -10 -5 -5 -8 -10 -10 -10 -4 0
6 -15 11 -32 11 -18 -1 -33 2 -33 6 0 4 -13 14 -29 22 -30 16 -50 20 -29 7 8
-5 -2 -8 -25 -8 -20 -1 -29 1 -19 3 9 3 17 11 17 20 0 12 -3 13 -14 4 -8 -7
-25 -9 -38 -6 -12 3 -93 -5 -178 -19 -534 -86 -1010 -118 -1747 -117 -266 0
-485 -4 -488 -8 -2 -5 -46 -9 -97 -9 -51 0 -124 -8 -163 -17 -38 -8 -83 -18
-100 -21 -16 -3 -33 -10 -36 -15 -3 -5 -35 -10 -72 -11 -55 -2 -71 1 -97 21
-28 20 -33 21 -48 8 -9 -8 -22 -12 -29 -10 -9 3 -44 -44 -48 -67 -20 -96 -22
-129 -25 -290 -2 -152 10 -528 21 -650 15 -168 19 -443 23 -1880 3 -770 1
-1402 -4 -1465 -13 -150 -40 -313 -54 -318 -9 -4 -12 101 -12 422 1 234 -1
512 -4 617 l-5 192 -40 -28 c-96 -67 -171 -192 -210 -350 -12 -48 -13 16 -14
532 -1 381 3 589 9 593 6 3 10 50 10 106 0 59 4 99 10 99 6 0 11 222 12 633
l3 632 18 -100 c10 -55 26 -127 34 -160 16 -57 40 -101 51 -90 3 3 11 0 17 -5
9 -8 14 1 18 32 3 24 10 72 16 108 16 102 40 344 46 465 19 368 23 513 20 705
-3 215 -8 268 -40 475 -12 71 -18 172 -19 285 -1 160 1 180 23 241 27 75 57
101 143 126 29 9 58 19 64 24 19 15 150 57 201 65 26 4 79 18 118 31 38 13 88
29 110 34 22 6 44 14 50 20 5 5 20 9 32 9 13 0 36 6 51 14 29 15 203 34 842
91 931 84 1289 120 1380 139 26 6 327 32 965 86 376 32 645 56 657 59 3 0 -2
-36 -12 -81z m538 -1476 c-2 -37 8 -494 17 -802 3 -91 7 -370 10 -620 3 -250
8 -662 12 -915 5 -253 8 -685 8 -960 0 -533 -9 -659 -53 -783 l-19 -54 -2 564
c-1 309 -3 595 -6 633 -2 39 -6 597 -8 1240 -4 1048 2 1692 17 1732 10 26 26
2 24 -35z m-677 -3896 c83 -18 140 -47 165 -83 26 -38 25 -181 0 -273 -106
-376 -407 -626 -877 -732 -87 -19 -132 -23 -279 -23 -156 0 -183 3 -250 24
-99 31 -143 54 -198 104 -155 143 -113 351 115 568 139 132 314 239 516 313
261 97 619 142 808 102z m-5070 -450 c153 -33 197 -86 186 -225 -8 -93 -36
-192 -82 -290 -137 -289 -414 -483 -816 -573 -138 -30 -407 -33 -509 -5 -201
55 -310 165 -310 314 0 108 73 236 212 369 219 210 553 359 917 409 130 18
321 18 402 1z m5527 -656 c6 -11 13 -38 14 -60 1 -34 3 -38 17 -27 20 16 -22
-54 -75 -123 -60 -79 -327 -335 -424 -407 -173 -127 -437 -219 -703 -244 -330
-32 -651 58 -827 230 -106 104 -131 201 -53 201 l23 0 -30 53 c-35 62 -37 70
-12 58 62 -31 241 -76 392 -97 88 -12 156 -15 290 -10 189 6 205 8 355 37 225
45 453 131 655 247 62 35 155 91 165 99 33 26 120 60 157 61 34 2 46 -2 56
-18z m-5075 -451 c10 -11 17 -28 16 -37 -3 -37 2 -63 11 -57 18 11 11 -5 -29
-63 -51 -75 -121 -154 -201 -226 -36 -33 -92 -85 -125 -117 -87 -83 -196 -166
-219 -167 -5 0 -12 -4 -15 -9 -12 -17 -166 -84 -271 -118 -99 -32 -87 -29
-240 -55 -113 -19 -281 -22 -395 -6 -136 19 -133 18 -230 52 -171 59 -322 169
-375 275 -20 39 -28 105 -11 94 5 -3 13 0 16 6 4 5 13 8 21 5 19 -7 17 8 -6
46 -23 38 -28 77 -7 60 19 -16 173 -60 288 -83 131 -26 393 -36 539 -20 283
31 592 128 823 258 33 18 61 33 64 33 2 0 19 11 37 25 18 14 37 25 43 25 6 0
23 10 37 21 49 39 139 79 176 79 24 0 41 -7 53 -21z"/>
<path d="M8115 1320 c-348 -15 -530 -39 -530 -69 0 -20 81 -37 250 -53 221
-21 1190 -18 1360 4 128 17 195 33 195 47 0 13 -44 30 -105 40 -179 30 -806
46 -1170 31z"/>
</g>
</svg>
